<?xml version="1.0" encoding="utf-8"?>
<svg id="master-artboard" xmlns="http://www.w3.org/2000/svg" viewBox="0 0 500 500" width="500px" height="500px"><g transform="matrix(-22.727272033691406, 0, 0, -22.727272033691406, 461.07677882627536, 502.64105224609375)"><path style="fill: currentcolor; fill-opacity: 1; stroke: none; color: rgb(77, 77, 77);" d="m7.707031 3l-.707031.707031 6.125 6.125 1.167969 1.167969-1.167969 1.167969-6.125 6.125.707031.707031 6.125-6.125 1.875-1.875-1.875-1.875-6.125-6.125" class="ColorScheme-Text"/></g><g transform="matrix(-22.727272033691406, 0, 0, -22.727272033691406, 568.0700532945523, 502.49566650390625)"><path style="fill: currentcolor; fill-opacity: 1; stroke: none; color: rgb(77, 77, 77);" d="m7.707031 3l-.707031.707031 6.125 6.125 1.167969 1.167969-1.167969 1.167969-6.125 6.125.707031.707031 6.125-6.125 1.875-1.875-1.875-1.875-6.125-6.125" class="ColorScheme-Text" transform="matrix(1, 0, 0, 1, -0.5111343828711945, -3.552713678800501e-15)"/></g></svg>